<mxfile host="app.diagrams.net" modified="2023-05-16T05:54:10.928Z" agent="Mozilla/5.0 (Windows NT 10.0; Win64; x64) AppleWebKit/537.36 (KHTML, like Gecko) Chrome/113.0.0.0 Safari/537.36" version="21.1.6" etag="oje1gUEsl8UfE-Fgm88H" type="github">
  <diagram name="Trang-1" id="uS0vhcb_nS4LPuKjdK7Z">
    <mxGraphModel>
      <root>
        <mxCell id="0" />
        <mxCell id="1" parent="0" />
      </root>
    </mxGraphModel>
  </diagram>
</mxfile>
